<svg width="20" height="25" viewBox="0 0 20 25" xmlns="http://www.w3.org/2000/svg">
    <path d="M3.23 21.192c-1.783 0-3.23-1.48-3.23-3.303 0-1.21.64-2.288 1.618-2.864l-.004-4.294c0-3.805 2.495-7.008 5.916-7.965v-.291c0-1.216.964-2.202 2.152-2.202 1.188 0 2.151.986 2.151 2.202v.291c3.422.957 5.917 4.16 5.917 7.97v4.299a3.308 3.308 0 0 1 1.614 2.854c0 1.825-1.445 3.303-3.23 3.303H12.91c-.002 1.824-1.45 3.303-3.227 3.303-1.783 0-3.227-1.477-3.227-3.3l-3.225-.003zm5.376 0c0 .609.481 1.1 1.076 1.1.59 0 1.074-.493 1.076-1.1H8.606zm6.992-5.135v-5.32c0-3.35-2.647-6.06-5.916-6.06-3.268 0-5.917 2.71-5.917 6.054v5.326c0 .308-.23.614-.516.689l-.291.077c-.471.124-.806.56-.806 1.066 0 .606.483 1.1 1.078 1.1h12.904c.597 0 1.078-.491 1.078-1.1a1.1 1.1 0 0 0-.807-1.066l-.282-.075a.752.752 0 0 1-.525-.691z" fill="#FF8C00" fill-rule="evenodd"/>
</svg>
