<svg width="25" height="25" viewBox="0 0 25 25" xmlns="http://www.w3.org/2000/svg">
    <path d="M25 23.57c0 1.384-.9 1.832-1.998 1.012L16.875 20H2.5A2.5 2.5 0 0 1 0 17.497V2.503A2.504 2.504 0 0 1 2.5 0h20A2.5 2.5 0 0 1 25 2.503V23.57zM22.5 2.503 2.5 2.5v14.997l15.206.003 4.818 3.602-.024-18.6zm-10 9.372a1.875 1.875 0 1 1 0-3.75 1.875 1.875 0 0 1 0 3.75zm-5 0a1.875 1.875 0 1 1 0-3.75 1.875 1.875 0 0 1 0 3.75zm10 0a1.875 1.875 0 1 1 0-3.75 1.875 1.875 0 0 1 0 3.75z" fill="#FF8C00" fill-rule="evenodd"/>
</svg>
