<svg width="21" height="21" viewBox="0 0 21 21" xmlns="http://www.w3.org/2000/svg">
    <g fill="#FFF" fill-rule="nonzero">
        <path d="M10.5 0C4.71 0 0 4.71 0 10.5S4.71 21 10.5 21 21 16.29 21 10.5 16.29 0 10.5 0zm0 19.174c-4.783 0-8.674-3.891-8.674-8.674 0-4.783 3.891-8.674 8.674-8.674 4.783 0 8.674 3.891 8.674 8.674 0 4.783-3.891 8.674-8.674 8.674z"/>
        <path d="M15.616 5.822a.454.454 0 0 0-.504-.097L8.71 8.47a.458.458 0 0 0-.24.24l-2.744 6.403a.457.457 0 0 0 .6.6l6.404-2.744a.461.461 0 0 0 .24-.24l2.744-6.404a.458.458 0 0 0-.097-.503zm-4.897 5.812a.916.916 0 0 1-.915-.915c0-.504.411-.915.915-.915s.915.411.915.915-.41.915-.915.915z"/>
    </g>
</svg>
