<svg width="16" height="16" viewBox="0 0 16 16" xmlns="http://www.w3.org/2000/svg">
    <path d="M13.653 2.34c-3.12-3.12-8.194-3.12-11.314 0-3.119 3.119-3.119 8.194 0 11.314a7.977 7.977 0 0 0 5.657 2.338c2.049 0 4.097-.779 5.657-2.338 3.12-3.12 3.12-8.195 0-11.314zm-2.357 8.014a.666.666 0 1 1-.943.942L7.996 8.94 5.64 11.296a.667.667 0 0 1-.942-.943l2.356-2.357L4.697 5.64a.666.666 0 1 1 .943-.943l2.356 2.357 2.357-2.357a.666.666 0 1 1 .943.943L8.939 7.996l2.357 2.358z" fill="#4F007C" fill-rule="nonzero"/>
</svg>
