<svg width="21" height="21" viewBox="0 0 21 21" xmlns="http://www.w3.org/2000/svg">
    <path d="M0 19.806c0-.58.468-1.05 1.049-1.05H19.95c.58 0 1.049.466 1.049 1.05 0 .58-.468 1.05-1.049 1.05H1.05c-.58 0-1.049-.466-1.049-1.05zM18.757.612 20.245 2.1c.819.82.819 2.148-.003 2.97L9.849 15.463l-3.909.981c-1.126.283-1.808-.405-1.527-1.527l.98-3.909L15.788.616a2.103 2.103 0 0 1 2.97-.004zm-9.28 12.253L7.993 11.38l-.703.703-.492 1.977 1.968-.484.711-.711zm7.052-7.052-1.485-1.488-5.566 5.57 1.484 1.485 5.567-5.567z" fill="#FFF" fill-rule="evenodd"/>
</svg>
