<svg width="30" height="22" viewBox="0 0 30 22" xmlns="http://www.w3.org/2000/svg">
    <path d="M15 0c4.092 0 7.844 1.54 10.802 4.088C28.307 6.246 30 8.975 30 10.91c0 1.934-1.695 4.663-4.203 6.821-2.96 2.548-6.711 4.088-10.797 4.088-4.085 0-7.836-1.542-10.797-4.093C1.696 15.565 0 12.837 0 10.909s1.694-4.657 4.197-6.815C7.157 1.542 10.91 0 15 0zm0 2.727c-3.401 0-6.535 1.288-9.022 3.433-1.962 1.69-3.25 3.768-3.25 4.75 0 .98 1.29 3.056 3.255 4.748 2.489 2.145 5.621 3.433 9.017 3.433 3.397 0 6.53-1.287 9.018-3.428 1.965-1.691 3.255-3.767 3.255-4.754 0-.988-1.288-3.064-3.25-4.754-2.486-2.141-5.62-3.428-9.023-3.428zm0 2.728a5.455 5.455 0 1 1 0 10.909 5.455 5.455 0 0 1 0-10.91zm0 2.727a2.727 2.727 0 1 0 2.727 2.727h-.682A2.045 2.045 0 0 1 15 8.864v-.682z" fill="#FFF" fill-rule="evenodd"/>
</svg>
