<svg width="25" height="24" viewBox="0 0 25 24" xmlns="http://www.w3.org/2000/svg">
    <path d="M10.76 11.659c.271.215.49.667.49 1.015v7.181l2.5-1.353v-5.835c0-.342.216-.79.49-1.008L19.462 7.5H5.537l5.224 4.159zM22.5 5V2.497L2.5 2.5V5h20zm-6.25 13.753c0 .689-.492 1.513-1.099 1.84l-4.201 2.27c-1.215.656-2.2.074-2.2-1.31V13.25L.98 7.035C.44 6.6 0 5.686 0 4.995V2.497A2.5 2.5 0 0 1 2.5 0h20C23.88 0 25 1.123 25 2.497v2.498c0 .693-.438 1.605-.98 2.04l-7.77 6.215v5.503z" fill="#333" fill-rule="evenodd"/>
</svg>
