<svg width="24" height="19" viewBox="0 0 24 19" xmlns="http://www.w3.org/2000/svg">
    <path d="m11.733 3.733 8.519 6.913c.01.019.015.048.015.087v7a.89.89 0 0 1-.282.656.917.917 0 0 1-.667.278H13.63v-5.6H9.837v5.6H4.148a.92.92 0 0 1-.666-.278.89.89 0 0 1-.282-.656v-7c0-.01.003-.024.007-.043l.006-.026.002-.018 8.518-6.913zM12 0c.437 0 .814.122 1.131.367l3.633 2.882V.495c0-.132.044-.24.133-.325a.478.478 0 0 1 .343-.127h2.858c.14 0 .253.042.342.127.09.084.135.193.135.325v5.763l3.26 2.57a.405.405 0 0 1 .163.304.441.441 0 0 1-.104.332l-.923 1.045a.517.517 0 0 1-.312.156h-.045a.475.475 0 0 1-.313-.099L12 2.416l-10.301 8.15a.575.575 0 0 1-.358.1.517.517 0 0 1-.312-.156L.106 9.464a.441.441 0 0 1-.104-.332.404.404 0 0 1 .163-.303L10.87.367A1.798 1.798 0 0 1 12 0z" fill="#FFF" fill-rule="nonzero"/>
</svg>
