<svg width="18" height="26" viewBox="0 0 18 26" xmlns="http://www.w3.org/2000/svg">
    <path d="M1.688 8.7c0 4.329 3.28 7.85 7.312 7.85s7.312-3.521 7.312-7.85H18c0 4.704-3.197 8.627-7.398 9.434v3.198h3.803V25.5H3.595v-4.168h3.803v-3.198C3.198 17.327 0 13.404 0 8.7zM9 0c2.65 0 4.913 1.91 5.702 4.536h-2.994v1.439H15V8.12c0 .098-.002.196-.006.293h-3.286v1.75h2.994C13.913 12.79 11.65 14.7 9 14.7s-4.913-1.91-5.702-4.536h2.994v-1.75H3.006A7.242 7.242 0 0 1 3 8.121V5.975h3.292V4.536H3.298C4.087 1.91 6.35 0 9 0z" fill="#FFF" fill-rule="nonzero"/>
</svg>
