<svg width="29" height="22" viewBox="0 0 29 22" xmlns="http://www.w3.org/2000/svg">
    <path d="m19.773 5.992 4.08-2.968a2.35 2.35 0 0 1 1.194-.388h2.63c.731 0 1.323.592 1.323 1.322v13.175c0 .73-.584 1.322-1.322 1.322h-2.63c-.366 0-.903-.176-1.195-.388l-4.08-2.968v3.353a2.636 2.636 0 0 1-2.636 2.639H2.636A2.636 2.636 0 0 1 0 18.45V2.64A2.636 2.636 0 0 1 2.636 0h14.5a2.636 2.636 0 0 1 2.637 2.64v3.352zM2.636 2.636v15.819h14.5V2.636h-14.5zM5.273 14.5a1.32 1.32 0 0 1 1.322-1.318h6.583c.73 0 1.322.585 1.322 1.318a1.32 1.32 0 0 1-1.322 1.318H6.595c-.73 0-1.322-.585-1.322-1.318zm14.516-2.65 5.463 3.968 1.112-.001V5.27l-1.115-.002-5.46 3.97v2.612z" fill="#FF8C00" fill-rule="evenodd"/>
</svg>
